<?xml version="1.0" encoding="utf-8"?>
<svg viewBox="0 0 500 500" xmlns="http://www.w3.org/2000/svg" xmlns:bx="https://boxy-svg.com">
  <rect x="79.825" y="45.241" width="334.585" height="264.375" style="fill: rgb(255, 139, 139);"/>
  <path d="M -250.413 -410.305 L -192.894 -308.616 L -307.932 -308.616 L -250.413 -410.305 Z" style="fill: rgb(255, 139, 139);" transform="matrix(-1, 0, 0, -1, 0, 0)" bx:shape="triangle -307.932 -410.305 115.038 101.689 0.5 0 1@a0328738"/>
  <path fill="#000" d="M 304.695 79.12 L 295.419 79.221 L 295.635 99.6 C 272.046 106.546 239.702 109.919 209.843 111.924 C 227.93 162.262 261.046 202.773 291.188 246.354 C 301.865 236.078 317.528 229.633 334.2 227.528 C 323.481 218.06 315.32 212.907 303.88 190.702 C 319.995 210.091 330.976 216.041 343.883 223.119 C 345.565 216.274 348.489 210.239 353.531 206.037 C 357.998 202.315 363.851 200.467 370.811 200.629 C 346.654 169.385 318.415 139.432 304.934 101.591 L 304.695 79.121 L 304.695 79.12 Z M 202.704 85.224 L 193.429 85.351 C 193.429 85.351 193.558 94.94 193.718 104.68 C 193.798 109.55 193.885 114.458 193.97 118.236 C 194.001 119.614 194.03 120.63 194.059 121.656 C 176.342 165.432 158.421 205.824 130.197 243.701 C 147.53 242.976 164.378 243.073 180.985 243.68 C 192.459 210.943 193.018 173.177 199.346 138.069 C 205.23 173.914 204.792 210.973 216.602 245.679 C 238.742 247.291 260.762 249.442 283.262 251.391 C 254.573 210.011 222.341 170.337 203.323 121.021 C 203.297 120.089 203.271 119.246 203.244 118.022 C 203.16 114.28 203.072 109.383 202.993 104.523 C 202.833 94.802 202.704 85.224 202.704 85.224 Z" style=""/>
</svg>