<?xml version="1.0" encoding="utf-8"?>
<svg viewBox="0 0 500 500" xmlns="http://www.w3.org/2000/svg" xmlns:bx="https://boxy-svg.com">
  <rect x="76.194" y="94.909" width="334.585" height="268.279" style="fill: rgb(181, 104, 59);"/>
  <path d="M 124.642 324.276 L 124.642 291.795 L 209.419 291.795 L 209.419 324.276 L 192.463 324.276 L 192.463 308.035 L 175.508 308.035 L 175.508 324.276 L 158.552 324.276 L 158.552 308.035 L 141.597 308.035 L 141.597 324.276 L 124.642 324.276 Z M 277.24 324.276 L 277.24 291.795 L 362.016 291.795 L 362.016 324.276 L 345.061 324.276 L 345.061 308.035 L 328.106 308.035 L 328.106 324.276 L 311.151 324.276 L 311.151 308.035 L 294.195 308.035 L 294.195 324.276 L 277.24 324.276 Z M 124.642 275.554 L 124.642 129.39 L 209.419 129.39 C 209.419 145.63 209.419 178.111 243.329 178.111 C 277.24 178.111 277.24 145.63 277.24 129.39 L 362.016 129.39 L 362.016 275.554 L 277.24 275.554 L 277.24 243.073 L 243.329 243.073 L 209.419 243.073 L 209.419 275.554 L 124.642 275.554 Z M 158.552 243.073 L 175.508 243.073 L 175.508 226.833 L 167.03 210.592 L 158.552 226.833 L 158.552 243.073 Z M 311.151 243.073 L 328.106 243.073 L 328.106 226.833 L 319.628 210.592 L 311.151 226.833 L 311.151 243.073 Z" id="castle-fortress" style="fill-opacity: 1; stroke: none; fill: rgb(33, 33, 33);" transform="matrix(-1, 0, 0, -1, 486.65802, 453.666016)"/>
  <path d="M -244.348 -464.177 L -181.263 -362.488 L -307.432 -362.488 L -244.348 -464.177 Z" style="fill: rgb(181, 104, 59);" transform="matrix(-1, 0, 0, -1, 0, 0)" bx:shape="triangle -307.432 -464.177 126.169 101.689 0.5 0 1@f93cbe39"/>
</svg>