<?xml version="1.0" encoding="utf-8"?>
<svg viewBox="0 0 500 500" xmlns="http://www.w3.org/2000/svg" xmlns:bx="https://boxy-svg.com">
  <rect x="81.825" y="45.241" width="334.585" height="264.375" style="fill: rgb(242, 195, 172);"/>
  <path d="M -250.413 -410.305 L -192.894 -308.616 L -307.932 -308.616 L -250.413 -410.305 Z" style="fill: rgb(242, 195, 172);" transform="matrix(-1, 0, 0, -1, 0, 0)" bx:shape="triangle -307.932 -410.305 115.038 101.689 0.5 0 1@a0328738"/>
  <path fill-rule="evenodd" d="M 228.283 173.829 L 228.283 88.344 L 241.223 88.344 L 241.223 163.046 L 263.779 150.261 C 265.825 149.103 268.382 149.103 270.43 150.261 L 292.984 163.046 L 292.984 88.344 L 305.924 88.344 L 305.924 173.829 C 305.925 178.53 300.534 181.468 296.22 179.12 C 296.189 179.103 296.158 179.086 296.129 179.07 L 267.104 162.63 L 238.079 179.082 C 233.807 181.496 228.365 178.643 228.285 173.943 C 228.283 173.905 228.283 173.867 228.283 173.829 Z" style=""/>
  <path d="M 187.463 76.132 L 316.864 76.132 C 331.158 76.132 342.744 87.068 342.744 100.557 L 342.744 247.104 C 342.744 260.592 331.158 271.528 316.864 271.528 L 187.463 271.528 C 173.17 271.528 161.583 260.592 161.583 247.104 L 161.583 234.891 L 174.523 234.891 L 174.523 247.104 C 174.523 253.848 180.316 259.316 187.463 259.316 L 316.864 259.316 C 324.011 259.316 329.804 253.848 329.804 247.104 L 329.804 100.557 C 329.804 93.812 324.011 88.344 316.864 88.344 L 187.463 88.344 C 180.316 88.344 174.523 93.812 174.523 100.557 L 174.523 112.769 L 161.583 112.769 L 161.583 100.557 C 161.583 87.068 173.17 76.132 187.463 76.132 Z" style=""/>
  <path d="M 161.583 137.193 L 161.583 131.087 C 161.583 126.386 166.975 123.449 171.288 125.799 C 173.29 126.89 174.523 128.905 174.523 131.087 L 174.523 137.193 L 180.993 137.193 C 185.973 137.193 189.086 142.282 186.597 146.353 C 185.44 148.242 183.304 149.406 180.993 149.406 L 155.113 149.406 C 150.131 149.406 147.02 144.318 149.509 140.246 C 150.665 138.358 152.802 137.193 155.113 137.193 L 161.583 137.193 Z M 161.583 173.829 L 161.583 167.724 C 161.583 163.023 166.975 160.085 171.288 162.435 C 173.29 163.527 174.523 165.541 174.523 167.724 L 174.523 173.829 L 180.993 173.829 C 185.973 173.829 189.086 178.918 186.597 182.99 C 185.44 184.878 183.304 186.041 180.993 186.041 L 155.113 186.041 C 150.131 186.041 147.02 180.954 149.509 176.883 C 150.665 174.993 152.802 173.829 155.113 173.829 L 161.583 173.829 Z M 161.583 210.466 L 161.583 204.361 C 161.583 199.659 166.975 196.722 171.288 199.072 C 173.29 200.164 174.523 202.179 174.523 204.361 L 174.523 210.466 L 180.993 210.466 C 185.973 210.466 189.086 215.555 186.597 219.626 C 185.44 221.515 183.304 222.678 180.993 222.678 L 155.113 222.678 C 150.131 222.678 147.02 217.59 149.509 213.519 C 150.665 211.63 152.802 210.466 155.113 210.466 L 161.583 210.466 Z" style=""/>
</svg>