<?xml version="1.0" encoding="utf-8"?>
<svg viewBox="0 0 500 500" xmlns="http://www.w3.org/2000/svg" xmlns:bx="https://boxy-svg.com">
  <rect x="81.825" y="44.241" width="334.585" height="264.375" style="fill: rgb(97, 138, 200);"/>
  <path d="M -250.413 -410.305 L -192.894 -308.616 L -307.932 -308.616 L -250.413 -410.305 Z" style="fill: rgb(97, 138, 200);" transform="matrix(-1, 0, 0, -1, 0, 0)" bx:shape="triangle -307.932 -410.305 115.038 101.689 0.5 0 1@a0328738"/>
  <path d="M 376.621 255.568 L 262.101 78.964 C 259.759 75.353 255.727 73.169 251.397 73.169 C 247.067 73.169 243.035 75.353 240.693 78.964 L 126.173 255.568 C 123.656 259.45 123.478 264.385 125.708 268.436 C 127.94 272.486 132.223 275.004 136.878 275.003 L 365.917 275.003 C 370.573 275.003 374.856 272.484 377.086 268.432 C 379.317 264.383 379.138 259.449 376.621 255.568 Z M 251.397 109.112 L 285.352 161.471 L 251.397 161.471 L 225.949 186.701 L 210.814 171.697 L 251.397 109.112 Z" style=""/>
</svg>