<?xml version="1.0" encoding="utf-8"?>
<svg viewBox="0 0 500 500" xmlns="http://www.w3.org/2000/svg" xmlns:bx="https://boxy-svg.com">
  <rect x="81.194" y="91.909" width="322.536" height="275.171" style="fill: rgb(230, 230, 54);"/>
  <path d="M -242.732 -467.769 L -182.173 -366.08 L -303.292 -366.08 L -242.732 -467.769 Z" style="fill: rgb(230, 230, 54);" transform="matrix(-1, 0, 0, -1, 0, 0)" bx:shape="triangle -303.292 -467.769 121.119 101.689 0.5 0 1@1ccd2c4e"/>
  <path d="M 292.975 246.796 C 282.128 206.691 232.781 193.602 204.15 223.235 C 197.807 229.8 193.216 237.911 190.813 246.796 L 183.463 273.968 C 177.803 294.895 193.239 315.569 214.524 315.569 L 269.264 315.569 C 290.549 315.569 305.985 294.895 300.325 273.968 L 292.975 246.796 Z M 284.645 294.651 C 281.004 299.567 275.305 302.448 269.264 302.425 L 214.524 302.425 C 201.753 302.425 192.491 290.02 195.887 277.464 L 203.237 250.291 C 211.446 219.941 248.791 210.036 270.458 232.462 C 275.258 237.43 278.732 243.568 280.551 250.291 L 287.901 277.464 C 289.529 283.397 288.323 289.765 284.645 294.653 L 284.645 294.651 Z" class="ci-primary" style=""/>
  <path d="M 197.63 217.289 C 198.751 210.141 197.264 202.49 193.441 195.738 C 189.618 188.987 183.863 183.847 177.235 181.264 C 170.136 178.499 162.896 178.94 156.841 182.503 C 144.804 189.592 141.636 207.062 149.781 221.447 C 153.603 228.199 159.358 233.339 165.986 235.921 C 168.923 237.088 172.044 237.697 175.195 237.717 C 179.121 237.731 182.98 236.684 186.38 234.682 C 192.432 231.117 196.427 224.94 197.63 217.289 Z M 184.902 215.211 C 184.326 218.879 182.562 221.751 179.935 223.298 C 177.308 224.845 173.987 224.966 170.584 223.641 C 166.712 222.134 163.288 219.02 160.941 214.875 C 156.43 206.906 157.502 197.293 163.285 193.887 C 164.739 193.046 166.386 192.612 168.057 192.631 C 169.625 192.648 171.177 192.956 172.636 193.542 C 176.507 195.051 179.932 198.164 182.278 202.309 C 184.625 206.454 185.556 211.037 184.902 215.211 Z" class="ci-primary" style=""/>
  <path d="M 199.026 189.057 C 203.602 192.788 208.828 194.731 214.113 194.731 C 215.696 194.73 217.274 194.557 218.821 194.213 C 232.403 191.201 240.639 175.546 237.179 159.314 C 235.556 151.696 231.609 145.012 226.067 140.493 C 220.133 135.654 213.103 133.822 206.272 135.337 C 192.69 138.348 184.455 154.004 187.914 170.236 C 189.538 177.854 193.484 184.538 199.026 189.057 Z M 209.01 148.182 C 209.636 148.045 210.275 147.976 210.916 147.977 C 213.311 147.977 215.775 148.933 218.019 150.763 C 221.256 153.402 223.588 157.431 224.584 162.109 C 226.502 171.103 222.608 179.923 216.083 181.37 C 213.118 182.027 209.919 181.112 207.074 178.792 C 203.837 176.153 201.506 172.123 200.509 167.446 C 198.592 158.45 202.485 149.629 209.01 148.182 Z" class="ci-primary" style=""/>
  <path d="M 327.947 181.503 C 321.894 177.94 314.651 177.499 307.553 180.264 C 300.925 182.847 295.17 187.987 291.348 194.738 C 287.526 201.49 286.039 209.143 287.159 216.289 C 288.36 223.94 292.355 230.117 298.409 233.682 C 301.809 235.684 305.668 236.731 309.594 236.717 C 312.745 236.697 315.866 236.088 318.803 234.921 C 325.431 232.339 331.186 227.199 335.008 220.447 C 343.152 206.062 339.985 188.592 327.947 181.503 Z M 323.847 213.875 C 321.5 218.02 318.076 221.134 314.204 222.641 C 310.802 223.967 307.481 223.845 304.854 222.298 C 302.227 220.75 300.464 217.879 299.887 214.211 C 299.232 210.037 300.163 205.456 302.51 201.313 C 304.857 197.17 308.281 194.054 312.153 192.545 C 313.612 191.959 315.163 191.65 316.731 191.633 C 318.403 191.615 320.049 192.048 321.503 192.889 C 327.286 196.293 328.359 205.904 323.847 213.875 Z" class="ci-primary" style=""/>
  <path d="M 266.967 194.213 C 268.514 194.557 270.092 194.73 271.675 194.731 C 276.96 194.731 282.188 192.788 286.762 189.057 C 292.304 184.539 296.25 177.854 297.874 170.236 C 301.333 154.004 293.098 138.349 279.516 135.338 C 272.686 133.824 265.656 135.654 259.721 140.493 C 254.179 145.012 250.232 151.696 248.609 159.314 C 245.15 175.546 253.385 191.201 266.967 194.213 Z M 261.204 162.107 C 262.2 157.429 264.532 153.398 267.769 150.76 C 270.013 148.931 272.477 147.975 274.873 147.975 C 275.513 147.974 276.152 148.043 276.779 148.18 C 283.303 149.627 287.197 158.45 285.28 167.442 C 284.283 172.119 281.951 176.15 278.715 178.788 C 275.871 181.107 272.673 182.023 269.706 181.366 C 263.18 179.921 259.287 171.099 261.204 162.107 Z" class="ci-primary" style=""/>
</svg>