<svg version="1.1" viewBox="0.0 0.0 960.0 720.0" fill="none" stroke="none" stroke-linecap="square" stroke-miterlimit="10" xmlns:xlink="http://www.w3.org/1999/xlink" xmlns="http://www.w3.org/2000/svg"><clipPath id="p.0"><path d="m0 0l960.0 0l0 720.0l-960.0 0l0 -720.0z" clip-rule="nonzero"/></clipPath><g clip-path="url(#p.0)"><path fill="#000000" fill-opacity="0.0" d="m0 0l960.0 0l0 720.0l-960.0 0z" fill-rule="evenodd"/><path fill="#02923f" d="m353.38583 276.64566l0 0c0 -63.55188 56.687103 -115.07086 126.61417 -115.07086l0 0c69.92706 0 126.6142 51.518982 126.6142 115.07086l0 0c0 63.55188 -56.687134 115.07086 -126.6142 115.07086l0 0c-69.92706 0 -126.61417 -51.518982 -126.61417 -115.07086z" fill-rule="evenodd"/><path stroke="#02923f" stroke-width="1.0" stroke-linejoin="round" stroke-linecap="butt" d="m353.38583 276.64566l0 0c0 -63.55188 56.687103 -115.07086 126.61417 -115.07086l0 0c69.92706 0 126.6142 51.518982 126.6142 115.07086l0 0c0 63.55188 -56.687134 115.07086 -126.6142 115.07086l0 0c-69.92706 0 -126.61417 -51.518982 -126.61417 -115.07086z" fill-rule="evenodd"/><path fill="#02923f" d="m573.0203 351.0866l-93.02362 180.31494l-93.02362 -180.31494z" fill-rule="evenodd"/><path stroke="#02923f" stroke-width="1.0" stroke-linejoin="round" stroke-linecap="butt" d="m573.0203 351.0866l-93.02362 180.31494l-93.02362 -180.31494z" fill-rule="evenodd"/><path fill="#ffffff" d="m438.85037 228.23628l103.968475 48.40944l-103.968475 48.409454z" fill-rule="evenodd"/><path stroke="#ffffff" stroke-width="1.0" stroke-linejoin="round" stroke-linecap="butt" d="m438.85037 228.23628l103.968475 48.40944l-103.968475 48.409454z" fill-rule="evenodd"/></g></svg>