<?xml version="1.0" encoding="UTF-8" standalone="no" ?>
<!DOCTYPE svg PUBLIC "-//W3C//DTD SVG 1.1//EN" "http://www.w3.org/Graphics/SVG/1.1/DTD/svg11.dtd">
<svg xmlns="http://www.w3.org/2000/svg" xmlns:xlink="http://www.w3.org/1999/xlink" version="1.1" width="1080" height="1080" viewBox="0 0 1080 1080" xml:space="preserve">
<desc>Created with Fabric.js 5.2.4</desc>
<defs>
</defs>
<g transform="matrix(1 0 0 1 540 540)" id="a3e98aad-4d55-411f-9bae-ac04bfcf21bb"  >
<rect style="stroke: none; stroke-width: 1; stroke-dasharray: none; stroke-linecap: butt; stroke-dashoffset: 0; stroke-linejoin: miter; stroke-miterlimit: 4; fill: rgb(255,255,255); fill-rule: nonzero; opacity: 1; visibility: hidden;" vector-effect="non-scaling-stroke"  x="-540" y="-540" rx="0" ry="0" width="1080" height="1080" />
</g>
<g transform="matrix(1 0 0 1 540 540)" id="0fa26892-d8db-46e2-9a0e-20d298a0beab"  >
</g>
<g transform="matrix(2.74 0 0 2.74 540 358.22)" clip-path="url(#CLIPPATH_3)"  >
<clipPath id="CLIPPATH_3" >
	<path transform="matrix(1 0 0 1 0 83.35) translate(-480, -360)" id="p.0" d="M 0 0 L 960 0 L 960 720 L 0 720 L 0 0 z" stroke-linecap="round" />
</clipPath>
<path style="stroke: none; stroke-width: 1; stroke-dasharray: none; stroke-linecap: square; stroke-dashoffset: 0; stroke-linejoin: miter; stroke-miterlimit: 10; fill: rgb(2,146,63); fill-rule: evenodd; opacity: 1;" vector-effect="non-scaling-stroke"  transform=" translate(-480, -276.65)" d="M 353.38583 276.64566 L 353.38583 276.64566 C 353.38583 213.09378000000004 410.072933 161.57480000000004 480 161.57480000000004 L 480 161.57480000000004 C 549.92706 161.57480000000004 606.6142 213.09378200000003 606.6142 276.64566 L 606.6142 276.64566 C 606.6142 340.19754 549.927066 391.71652 480 391.71652 L 480 391.71652 C 410.07294 391.71652 353.38583 340.197538 353.38583 276.64566 z" stroke-linecap="round" />
</g>
<g transform="matrix(2.39 0 0 2.39 540 807.89)" clip-path="url(#CLIPPATH_4)"  >
<clipPath id="CLIPPATH_4" >
	<path transform="matrix(1 0 0 1 0 -81.24) translate(-480, -360)" id="p.0" d="M 0 0 L 960 0 L 960 720 L 0 720 L 0 0 z" stroke-linecap="round" />
</clipPath>
<path style="stroke: none; stroke-width: 1; stroke-dasharray: none; stroke-linecap: square; stroke-dashoffset: 0; stroke-linejoin: miter; stroke-miterlimit: 10; fill: rgb(2,146,63); fill-rule: evenodd; opacity: 1;" vector-effect="non-scaling-stroke"  transform=" translate(-480, -441.24)" d="M 573.0203 351.0866 L 479.99668 531.40154 L 386.97306000000003 351.0866 z" stroke-linecap="round" />
</g>
<g transform="matrix(2.68 0 0 2.68 561.9 347.66)" clip-path="url(#CLIPPATH_5)"  >
<clipPath id="CLIPPATH_5" >
	<path transform="matrix(1 0 0 1 -10.83 83.35) translate(-480, -360)" id="p.0" d="M 0 0 L 960 0 L 960 720 L 0 720 L 0 0 z" stroke-linecap="round" />
</clipPath>
<path style="stroke: none; stroke-width: 1; stroke-dasharray: none; stroke-linecap: square; stroke-dashoffset: 0; stroke-linejoin: miter; stroke-miterlimit: 10; fill: rgb(255,255,255); fill-rule: evenodd; opacity: 1;" vector-effect="non-scaling-stroke"  transform=" translate(-490.83, -276.65)" d="M 438.85037 228.23628 L 542.818845 276.64572 L 438.85037 325.05517399999997 z" stroke-linecap="round" />
</g>
</svg>