<?xml version="1.0" encoding="utf-8"?>
<svg viewBox="0 0 500 500" xmlns="http://www.w3.org/2000/svg" xmlns:bx="https://boxy-svg.com">
  <rect x="76.194" y="94.909" width="334.585" height="268.279" style="fill: rgb(92, 138, 83);"/>
  <path d="M -245.348 -464.177 L -182.263 -362.488 L -308.432 -362.488 L -245.348 -464.177 Z" style="fill: rgb(92, 138, 83);" transform="matrix(-1, 0, 0, -1, 0, 0)" bx:shape="triangle -308.432 -464.177 126.169 101.689 0.5 0 1@70787b1e"/>
  <path d="M 329.435 277.889 L 294.054 242 L 307.619 242 C 311.61 242 315.139 240.017 316.822 236.822 C 318.504 233.632 317.951 229.976 315.37 227.283 L 280.768 191.236 L 293.562 191.236 C 297.592 191.236 301.224 189.114 302.801 185.838 C 304.36 182.614 303.625 178.862 300.923 176.288 L 252.086 129.695 C 249.417 127.137 244.433 127.137 241.759 129.695 L 192.919 176.288 C 190.217 178.862 189.486 182.614 191.041 185.838 C 192.617 189.114 196.254 191.236 200.284 191.236 L 213.078 191.236 L 178.472 227.291 C 175.898 229.98 175.345 233.632 177.023 236.825 C 178.706 240.017 182.232 242 186.227 242 L 199.792 242 L 164.411 277.889 C 161.753 280.583 161.15 284.271 162.833 287.511 C 164.494 290.704 168.149 292.766 172.139 292.766 L 232.751 292.766 L 232.751 302.462 L 219.336 321.658 C 216.98 325.879 220.407 330.844 225.674 330.844 L 268.172 330.844 C 273.438 330.844 276.866 325.879 274.509 321.658 L 261.096 302.462 L 261.096 292.766 L 321.707 292.766 C 325.697 292.766 329.352 290.704 331.012 287.511 C 332.694 284.271 332.092 280.583 329.435 277.889 Z" style=""/>
</svg>